<svg width="12" height="21" viewBox="0 0 12 21" fill="none" xmlns="http://www.w3.org/2000/svg">
<path d="M11.5662 0.441246C11.706 0.580601 11.817 0.746189 11.8927 0.928516C11.9684 1.11084 12.0074 1.30632 12.0074 1.50375C12.0074 1.70117 11.9684 1.89664 11.8927 2.07897C11.817 2.2613 11.706 2.42689 11.5662 2.56625L3.62993 10.5025L11.5662 18.4412C11.848 18.723 12.0063 19.1052 12.0063 19.5037C12.0063 19.9023 11.848 20.2845 11.5662 20.5662C11.2844 20.848 10.9022 21.0063 10.5037 21.0063C10.1052 21.0063 9.72298 20.848 9.44118 20.5662L0.441183 11.5662C0.301343 11.4269 0.190387 11.2613 0.114679 11.079C0.0389713 10.8966 0 10.7012 0 10.5037C0 10.3063 0.0389713 10.1108 0.114679 9.92852C0.190387 9.74619 0.301343 9.5806 0.441183 9.44125L9.44118 0.441246C9.58054 0.301406 9.74613 0.19045 9.92846 0.114742C10.1108 0.0390342 10.3063 6.10352e-05 10.5037 6.10352e-05C10.7011 6.10352e-05 10.8966 0.0390342 11.0789 0.114742C11.2612 0.19045 11.4268 0.301406 11.5662 0.441246Z" fill="black"/>
</svg>
