<svg width="19" height="19" viewBox="0 0 19 19" fill="none" xmlns="http://www.w3.org/2000/svg">
<path fill-rule="evenodd" clip-rule="evenodd" d="M6.23747 1.03958C6.23747 0.763865 6.34699 0.499444 6.54195 0.304485C6.73691 0.109527 7.00133 0 7.27704 0H11.4354C11.7111 0 11.9755 0.109527 12.1704 0.304485C12.3654 0.499444 12.4749 0.763865 12.4749 1.03958C12.4749 1.31529 12.3654 1.57971 12.1704 1.77467C11.9755 1.96963 11.7111 2.07916 11.4354 2.07916H10.3958V3.15512C16.0511 3.66451 19.7624 9.52981 17.599 14.9398C17.5219 15.1328 17.3886 15.2984 17.2165 15.4149C17.0443 15.5315 16.8412 15.5937 16.6332 15.5937H2.07916C1.87142 15.5935 1.6685 15.5312 1.49654 15.4146C1.32459 15.2981 1.1915 15.1327 1.11443 14.9398C-1.04997 9.52981 2.66132 3.66451 8.31662 3.15512V2.07916H7.27704C7.00133 2.07916 6.73691 1.96963 6.54195 1.77467C6.34699 1.57971 6.23747 1.31529 6.23747 1.03958ZM0 17.6728C0 17.3971 0.109527 17.1327 0.304485 16.9377C0.499444 16.7428 0.763865 16.6332 1.03958 16.6332H17.6728C17.9485 16.6332 18.213 16.7428 18.4079 16.9377C18.6029 17.1327 18.7124 17.3971 18.7124 17.6728C18.7124 17.9485 18.6029 18.213 18.4079 18.4079C18.213 18.6029 17.9485 18.7124 17.6728 18.7124H1.03958C0.763865 18.7124 0.499444 18.6029 0.304485 18.4079C0.109527 18.213 0 17.9485 0 17.6728Z" fill="#FF4F0F"/>
</svg>
