<svg width="25" height="25" viewBox="0 0 25 25" fill="none" xmlns="http://www.w3.org/2000/svg">
<circle cx="12.5" cy="12.5" r="12.5" fill="#F5F5F5"/>
<path d="M7.625 15.3437V17.375H9.65625L15.6471 11.3842L13.6158 9.35291L7.625 15.3437ZM17.2179 9.81333C17.2681 9.76322 17.308 9.7037 17.3352 9.63817C17.3623 9.57264 17.3763 9.5024 17.3763 9.43145C17.3763 9.36051 17.3623 9.29027 17.3352 9.22474C17.308 9.15921 17.2681 9.09969 17.2179 9.04958L15.9504 7.78208C15.9003 7.73187 15.8408 7.69203 15.7753 7.66485C15.7097 7.63766 15.6395 7.62367 15.5685 7.62367C15.4976 7.62367 15.4274 7.63766 15.3618 7.66485C15.2963 7.69203 15.2368 7.73187 15.1867 7.78208L14.1954 8.77333L16.2267 10.8046L17.2179 9.81333Z" fill="black"/>
</svg>
