<svg width="25" height="28" viewBox="0 0 25 28" fill="none" xmlns="http://www.w3.org/2000/svg">
<path d="M3.86062 27.0004C2.14271 27.0004 0.75 25.5712 0.75 23.8067V10.9704C0.75 10.0006 1.18021 9.08186 1.91667 8.47665L10.4727 1.4504C11.0194 0.997711 11.7069 0.75 12.4167 0.75C13.1264 0.75 13.814 0.997711 14.3606 1.4504L22.9152 8.47665C23.6531 9.08186 24.0833 10.0006 24.0833 10.9704V23.8067C24.0833 25.5712 22.6906 27.0004 20.9727 27.0004H3.86062Z" stroke="white" stroke-width="1.5" stroke-linecap="round" stroke-linejoin="round"/>
<path d="M8.771 27.0004V18.9796C8.771 18.206 9.07829 17.4642 9.62527 16.9172C10.1722 16.3702 10.9141 16.0629 11.6877 16.0629H13.146C13.9195 16.0629 14.6614 16.3702 15.2084 16.9172C15.7554 17.4642 16.0627 18.206 16.0627 18.9796V27.0004" stroke="white" stroke-width="1.5" stroke-linecap="round" stroke-linejoin="round"/>
</svg>
