<svg width="12" height="14" viewBox="0 0 12 14" fill="none" xmlns="http://www.w3.org/2000/svg">
<path d="M10.3333 5.66667C10.3333 9.45833 5.66667 12.6667 5.66667 12.6667C5.66667 12.6667 1 9.45833 1 5.66667C1 4.42899 1.49167 3.242 2.36684 2.36684C3.242 1.49167 4.42899 1 5.66667 1C6.90434 1 8.09133 1.49167 8.9665 2.36684C9.84167 3.242 10.3333 4.42899 10.3333 5.66667Z" stroke="#919191" stroke-width="2"/>
<path d="M7.4165 5.66666C7.4165 6.13079 7.23213 6.5759 6.90394 6.90409C6.57575 7.23228 6.13063 7.41666 5.6665 7.41666C5.20238 7.41666 4.75726 7.23228 4.42907 6.90409C4.10088 6.5759 3.9165 6.13079 3.9165 5.66666C3.9165 5.20253 4.10088 4.75741 4.42907 4.42922C4.75726 4.10103 5.20238 3.91666 5.6665 3.91666C6.13063 3.91666 6.57575 4.10103 6.90394 4.42922C7.23213 4.75741 7.4165 5.20253 7.4165 5.66666Z" stroke="#919191" stroke-width="2"/>
</svg>
