<svg width="19" height="21" viewBox="0 0 19 21" fill="none" xmlns="http://www.w3.org/2000/svg">
<path d="M9.3562 0C11.8376 0 14.2174 0.985739 15.972 2.74037C17.7267 4.49499 18.7124 6.87478 18.7124 9.3562C18.7124 12.5519 16.9701 15.1674 15.1342 17.0439C14.2169 17.9712 13.2161 18.812 12.1443 19.5555L11.7015 19.857L11.4936 19.9952L11.1017 20.2447L10.7524 20.4579L10.3199 20.7094C10.0263 20.877 9.69419 20.9651 9.3562 20.9651C9.01821 20.9651 8.68605 20.877 8.39251 20.7094L7.96005 20.4579L7.41947 20.1252L7.21987 19.9952L6.79364 19.7114C5.63746 18.9292 4.56053 18.0357 3.57823 17.0439C1.74233 15.1664 0 12.5519 0 9.3562C0 6.87478 0.98574 4.49499 2.74037 2.74037C4.495 0.985739 6.87478 0 9.3562 0ZM9.3562 6.23747C8.94664 6.23747 8.5411 6.31813 8.16271 6.47487C7.78433 6.6316 7.44052 6.86132 7.15092 7.15092C6.86132 7.44052 6.6316 7.78433 6.47487 8.16271C6.31814 8.54109 6.23747 8.94664 6.23747 9.3562C6.23747 9.76576 6.31814 10.1713 6.47487 10.5497C6.6316 10.9281 6.86132 11.2719 7.15092 11.5615C7.44052 11.8511 7.78433 12.0808 8.16271 12.2375C8.5411 12.3943 8.94664 12.4749 9.3562 12.4749C10.1833 12.4749 10.9766 12.1464 11.5615 11.5615C12.1464 10.9766 12.4749 10.1833 12.4749 9.3562C12.4749 8.52906 12.1464 7.7358 11.5615 7.15092C10.9766 6.56605 10.1833 6.23747 9.3562 6.23747Z" fill="#FF4F0F"/>
</svg>
