<svg width="20" height="22" viewBox="0 0 20 22" fill="none" xmlns="http://www.w3.org/2000/svg">
<path d="M10 0C12.6522 0 15.1957 1.0344 17.0711 2.87564C18.9464 4.71688 20 7.21414 20 9.81805C20 13.1715 18.1378 15.9161 16.1756 17.8852C15.1952 18.8584 14.1255 19.7406 12.98 20.5208L12.5067 20.8372L12.2844 20.9823L11.8656 21.2441L11.4922 21.4677L11.03 21.7317C10.7163 21.9075 10.3613 22 10 22C9.63875 22 9.28374 21.9075 8.97 21.7317L8.50778 21.4677L7.93 21.1186L7.71667 20.9823L7.26111 20.6844C6.02537 19.8636 4.87434 18.926 3.82444 17.8852C1.86222 15.9151 0 13.1715 0 9.81805C0 7.21414 1.05357 4.71688 2.92893 2.87564C4.8043 1.0344 7.34784 0 10 0ZM10 6.54537C9.56226 6.54537 9.12881 6.63002 8.72439 6.79448C8.31997 6.95895 7.95251 7.20001 7.64298 7.50391C7.33345 7.80781 7.08792 8.16859 6.9204 8.56565C6.75289 8.96271 6.66667 9.38827 6.66667 9.81805C6.66667 10.2478 6.75289 10.6734 6.9204 11.0704C7.08792 11.4675 7.33345 11.8283 7.64298 12.1322C7.95251 12.4361 8.31997 12.6771 8.72439 12.8416C9.12881 13.0061 9.56226 13.0907 10 13.0907C10.8841 13.0907 11.7319 12.7459 12.357 12.1322C12.9821 11.5184 13.3333 10.686 13.3333 9.81805C13.3333 8.95008 12.9821 8.11766 12.357 7.50391C11.7319 6.89016 10.8841 6.54537 10 6.54537Z" fill="black"/>
</svg>
