<svg width="23" height="18" viewBox="0 0 23 18" fill="none" xmlns="http://www.w3.org/2000/svg">
<path d="M4.18265 17.9107V16.7193C4.18265 16.2625 3.90652 15.9648 3.43322 15.9648C3.19661 15.9648 2.94025 16.0442 2.76275 16.3023C2.62477 16.0839 2.4276 15.9648 2.1318 15.9648C1.93454 15.9648 1.73746 16.0243 1.57963 16.2427V16.0045H1.16553V17.9107H1.57963V16.8582C1.57963 16.5208 1.75713 16.3618 2.03326 16.3618C2.30921 16.3618 2.44736 16.5406 2.44736 16.8582V17.9107H2.86147V16.8582C2.86147 16.5208 3.05855 16.3618 3.31492 16.3618C3.59105 16.3618 3.72902 16.5406 3.72902 16.8582V17.9107H4.18265ZM10.3153 16.0045H9.64487V15.4286H9.23077V16.0045H8.8561V16.3816H9.23068V17.2554C9.23068 17.6923 9.40818 17.9504 9.88148 17.9504C10.059 17.9504 10.2561 17.8908 10.3942 17.8114L10.2758 17.454C10.1575 17.5334 10.0195 17.5533 9.92091 17.5533C9.72374 17.5533 9.64487 17.4342 9.64487 17.2355V16.3816H10.3153V16.0045ZM13.8253 15.9647C13.5887 15.9647 13.431 16.0839 13.3324 16.2427V16.0045H12.9183V17.9107H13.3324V16.8384C13.3324 16.5208 13.4704 16.342 13.7267 16.342C13.8056 16.342 13.9042 16.3619 13.9831 16.3817L14.1014 15.9847C14.0225 15.9648 13.9042 15.9648 13.8253 15.9648M8.52086 16.1634C8.3236 16.0244 8.04756 15.9648 7.75176 15.9648C7.27855 15.9648 6.96308 16.2031 6.96308 16.5804C6.96308 16.8981 7.19968 17.0768 7.61379 17.1364L7.81096 17.1563C8.02789 17.1959 8.14619 17.2555 8.14619 17.3548C8.14619 17.4938 7.98846 17.5931 7.71233 17.5931C7.4362 17.5931 7.21935 17.4938 7.08129 17.3945L6.88412 17.7122C7.10105 17.871 7.39685 17.9505 7.69256 17.9505C8.24473 17.9505 8.5603 17.6924 8.5603 17.3349C8.5603 16.9974 8.30393 16.8186 7.9095 16.7591L7.71233 16.7392C7.53483 16.7193 7.39685 16.6797 7.39685 16.5606C7.39685 16.4215 7.53483 16.3421 7.75176 16.3421C7.98846 16.3421 8.22506 16.4413 8.34336 16.501L8.52086 16.1634ZM19.5243 15.9648C19.2876 15.9648 19.1298 16.084 19.0312 16.2428V16.0046H18.6171V17.9107H19.0312V16.8385C19.0312 16.5209 19.1693 16.3421 19.4255 16.3421C19.5045 16.3421 19.6031 16.362 19.682 16.3818L19.8003 15.9847C19.7214 15.9648 19.6031 15.9648 19.5243 15.9648ZM14.2395 16.9576C14.2395 17.5335 14.6338 17.9505 15.2452 17.9505C15.5212 17.9505 15.7184 17.8909 15.9155 17.7321L15.7184 17.3945C15.5606 17.5137 15.4029 17.5732 15.2254 17.5732C14.8902 17.5732 14.6536 17.3349 14.6536 16.9576C14.6536 16.6003 14.8902 16.3619 15.2254 16.3421C15.4029 16.3421 15.5606 16.4016 15.7184 16.5209L15.9155 16.1833C15.7184 16.0244 15.5212 15.9648 15.2452 15.9648C14.6338 15.9648 14.2395 16.3818 14.2395 16.9576ZM18.065 16.9576V16.0046H17.6509V16.2428C17.5129 16.0642 17.3157 15.9648 17.0593 15.9648C16.5269 15.9648 16.1128 16.3818 16.1128 16.9576C16.1128 17.5335 16.5269 17.9505 17.0593 17.9505C17.3354 17.9505 17.5326 17.8512 17.6509 17.6725V17.9107H18.065V16.9576ZM16.5466 16.9576C16.5466 16.6201 16.7635 16.3421 17.1184 16.3421C17.4537 16.3421 17.6904 16.6003 17.6904 16.9576C17.6904 17.2952 17.4537 17.5732 17.1184 17.5732C16.7635 17.5533 16.5466 17.2952 16.5466 16.9576ZM11.5971 15.9648C11.0449 15.9648 10.6505 16.3619 10.6505 16.9576C10.6505 17.5534 11.0448 17.9505 11.6168 17.9505C11.8928 17.9505 12.1689 17.871 12.3859 17.6924L12.1886 17.3945C12.0309 17.5137 11.8337 17.5931 11.6365 17.5931C11.3802 17.5931 11.1238 17.474 11.0646 17.1363H12.4647V16.9775C12.4845 16.3619 12.1296 15.9648 11.5971 15.9648ZM11.597 16.3222C11.8533 16.3222 12.0309 16.4811 12.0702 16.779H11.0843C11.1237 16.5209 11.3012 16.3222 11.597 16.3222ZM21.8707 16.9576V15.25H21.4566V16.2428C21.3186 16.0642 21.1214 15.9648 20.865 15.9648C20.3326 15.9648 19.9185 16.3818 19.9185 16.9576C19.9185 17.5335 20.3326 17.9505 20.865 17.9505C21.1412 17.9505 21.3383 17.8512 21.4566 17.6725V17.9107H21.8707V16.9576ZM20.3524 16.9576C20.3524 16.6201 20.5692 16.3421 20.9242 16.3421C21.2595 16.3421 21.4961 16.6003 21.4961 16.9576C21.4961 17.2952 21.2595 17.5732 20.9242 17.5732C20.5692 17.5533 20.3524 17.2952 20.3524 16.9576ZM6.50936 16.9576V16.0046H6.09525V16.2428C5.95719 16.0642 5.76002 15.9648 5.50365 15.9648C4.97124 15.9648 4.55714 16.3818 4.55714 16.9576C4.55714 17.5335 4.97124 17.9505 5.50365 17.9505C5.77978 17.9505 5.97695 17.8512 6.09525 17.6725V17.9107H6.50936V16.9576ZM4.97124 16.9576C4.97124 16.6201 5.18818 16.3421 5.54309 16.3421C5.87832 16.3421 6.11502 16.6003 6.11502 16.9576C6.11502 17.2952 5.87832 17.5732 5.54309 17.5732C5.18818 17.5533 4.97124 17.2952 4.97124 16.9576Z" fill="black"/>
<path d="M8.38281 1.52881H14.5944V12.7676H8.38281V1.52881Z" fill="#FF5F00"/>
<path d="M8.77734 7.14835C8.77734 4.86488 9.84216 2.83948 11.4788 1.52891C10.276 0.575819 8.75767 0 7.10125 0C3.17697 0 0.00219727 3.19685 0.00219727 7.14835C0.00219727 11.0998 3.17697 14.2967 7.10117 14.2967C8.75758 14.2967 10.2759 13.7209 11.4788 12.7677C9.84216 11.477 8.77734 9.43182 8.77734 7.14835Z" fill="#EB001B"/>
<path d="M22.9752 7.14835C22.9752 11.0998 19.8004 14.2967 15.8762 14.2967C14.2198 14.2967 12.7014 13.7209 11.4985 12.7677C13.155 11.4572 14.2001 9.43182 14.2001 7.14835C14.2001 4.86488 13.1352 2.83948 11.4985 1.52891C12.7013 0.575819 14.2198 0 15.8762 0C19.8004 0 22.9752 3.21675 22.9752 7.14835Z" fill="#F79E1B"/>
</svg>
