<svg width="12" height="21" viewBox="0 0 12 21" fill="none" xmlns="http://www.w3.org/2000/svg">
<path d="M0.441629 20.5651C0.301789 20.4257 0.190836 20.2602 0.115128 20.0778C0.0394195 19.8955 0.00044632 19.7 0.00044632 19.5026C0.00044632 19.3052 0.0394195 19.1097 0.115128 18.9274C0.190836 18.745 0.301789 18.5795 0.441629 18.4401L8.37788 10.5039L0.441629 2.5651C0.159837 2.28331 0.00152778 1.90112 0.00152779 1.5026C0.00152779 1.10409 0.159837 0.721895 0.441629 0.440102C0.723422 0.15831 1.10561 5.93833e-09 1.50413 0C1.90264 -5.93833e-09 2.28484 0.15831 2.56663 0.440102L11.5666 9.4401C11.7065 9.57946 11.8174 9.74505 11.8931 9.92737C11.9688 10.1097 12.0078 10.3052 12.0078 10.5026C12.0078 10.7 11.9688 10.8955 11.8931 11.0778C11.8174 11.2602 11.7065 11.4257 11.5666 11.5651L2.56663 20.5651C2.42727 20.7049 2.26168 20.8159 2.07936 20.8916C1.89703 20.9673 1.70155 21.0063 1.50413 21.0063C1.30671 21.0063 1.11123 20.9673 0.928902 20.8916C0.746574 20.8159 0.580985 20.7049 0.441629 20.5651Z" fill="black"/>
</svg>
