<svg width="20" height="22" viewBox="0 0 20 22" fill="none" xmlns="http://www.w3.org/2000/svg">
<path d="M10 0C7.92293 0 5.93094 0.853945 4.46223 2.37398C2.99352 3.89401 2.16841 5.95561 2.16841 8.10526V12.1903C2.16857 12.3699 2.12836 12.5471 2.05094 12.7079L0.129963 16.6829C0.0361251 16.8771 -0.00818416 17.093 0.00124331 17.3099C0.0106708 17.5268 0.0735219 17.7376 0.183827 17.9223C0.294133 18.107 0.44823 18.2594 0.631483 18.3652C0.814736 18.4709 1.02106 18.5263 1.23086 18.5263H18.7691C18.9789 18.5263 19.1853 18.4709 19.3685 18.3652C19.5518 18.2594 19.7059 18.107 19.8162 17.9223C19.9265 17.7376 19.9893 17.5268 19.9988 17.3099C20.0082 17.093 19.9639 16.8771 19.87 16.6829L17.9502 12.7079C17.8724 12.5472 17.8318 12.37 17.8316 12.1903V8.10526C17.8316 5.95561 17.0065 3.89401 15.5378 2.37398C14.0691 0.853945 12.0771 0 10 0ZM10 22C9.30562 22.0004 8.62821 21.7779 8.06114 21.3631C7.49408 20.9483 7.06526 20.3618 6.8338 19.6842H13.1662C12.9347 20.3618 12.5059 20.9483 11.9389 21.3631C11.3718 21.7779 10.6944 22.0004 10 22Z" fill="black"/>
</svg>
