<svg width="18" height="22" viewBox="0 0 18 22" fill="none" xmlns="http://www.w3.org/2000/svg">
<path d="M16.75 16.7498V8.74979C16.75 6.86379 16.75 5.92079 16.164 5.33579C15.578 4.74979 14.636 4.74979 12.75 4.74979H0.75V16.7498C0.75 18.6348 0.75 19.5778 1.336 20.1638C1.922 20.7498 2.864 20.7498 4.75 20.7498H12.75C14.636 20.7498 15.578 20.7498 16.164 20.1638C16.75 19.5778 16.75 18.6348 16.75 16.7498Z" stroke="#FF4F0F" stroke-width="1.5" stroke-linecap="round" stroke-linejoin="round"/>
<path d="M8.75 9.7498C9.54565 9.7498 10.3087 10.0659 10.8713 10.6285C11.4339 11.1911 11.75 11.9541 11.75 12.7498M8.75 9.7498C7.95435 9.7498 7.19129 10.0659 6.62868 10.6285C6.06607 11.1911 5.75 11.9541 5.75 12.7498M8.75 9.7498V8.7498M11.75 12.7498H5.75M11.75 12.7498H12.75M5.75 12.7498H4.75M4.75 16.7498H12.75M0.75 4.7498L8.135 1.6558C9.784 0.964798 10.608 0.618798 11.265 0.795798C11.691 0.910269 12.0672 1.16235 12.335 1.5128C12.75 2.0548 12.75 2.9528 12.75 4.7498" stroke="#FF4F0F" stroke-width="1.5" stroke-linecap="round" stroke-linejoin="round"/>
</svg>
