<svg width="25" height="25" viewBox="0 0 25 25" fill="none" xmlns="http://www.w3.org/2000/svg">
<path d="M0.75 20.5832C0.75 19.0803 1.3558 17.639 2.43414 16.5763C3.51247 15.5136 4.97501 14.9166 6.5 14.9166H18C19.525 14.9166 20.9875 15.5136 22.0659 16.5763C23.1442 17.639 23.75 19.0803 23.75 20.5832C23.75 21.3347 23.4471 22.0553 22.9079 22.5867C22.3688 23.1181 21.6375 23.4166 20.875 23.4166H3.625C2.8625 23.4166 2.13123 23.1181 1.59207 22.5867C1.0529 22.0553 0.75 21.3347 0.75 20.5832Z" stroke="white" stroke-width="1.5" stroke-linejoin="round"/>
<path d="M12.25 9.25C14.6317 9.25 16.5625 7.34721 16.5625 5C16.5625 2.65279 14.6317 0.75 12.25 0.75C9.86827 0.75 7.9375 2.65279 7.9375 5C7.9375 7.34721 9.86827 9.25 12.25 9.25Z" stroke="white" stroke-width="1.5"/>
</svg>
