<svg width="26" height="24" viewBox="0 0 26 24" fill="none" xmlns="http://www.w3.org/2000/svg">
<path d="M12.9324 23.1892L11.8432 22.1967C9.49816 20.0367 7.55829 18.1879 6.02364 16.65C4.48995 15.1112 3.27909 13.754 2.39107 12.5784C1.50304 11.4028 0.882283 10.3403 0.528797 9.39072C0.17531 8.44117 -0.000954074 7.48437 3.88361e-06 6.52033C3.88361e-06 4.67725 0.620761 3.12976 1.86227 1.87786C3.10379 0.625952 4.63844 0 6.46622 0C7.73072 0 8.9162 0.326016 10.0226 0.978049C11.1291 1.63008 12.099 2.57867 12.9324 3.82381C13.7659 2.57867 14.7358 1.63008 15.8422 0.978049C16.9487 0.326016 18.1341 0 19.3986 0C21.2264 0 22.7611 0.625952 24.0026 1.87786C25.2441 3.12976 25.8649 4.67725 25.8649 6.52033C25.8649 7.48244 25.6886 8.43876 25.3361 9.38928C24.9826 10.3417 24.3618 11.4053 23.4738 12.5799C22.5858 13.7545 21.3792 15.1112 19.8542 16.65C18.3291 18.1879 16.3844 20.0367 14.0202 22.1967L12.9324 23.1892ZM12.9324 21.2273C15.2315 19.1311 17.1235 17.3363 18.6083 15.843C20.0932 14.3496 21.2667 13.0527 22.1288 11.9525C22.991 10.8522 23.5897 9.87902 23.925 9.03283C24.2603 8.1847 24.4279 7.3472 24.4279 6.52033C24.4279 5.07137 23.9489 3.8639 22.991 2.89792C22.033 1.93195 20.8356 1.44896 19.3986 1.44896C18.2548 1.44896 17.1992 1.77836 16.2316 2.43715C15.2641 3.09595 14.3991 4.08752 13.6365 5.41187H12.2312C11.4486 4.06917 10.5783 3.07277 9.6203 2.42266C8.66234 1.77353 7.61146 1.44896 6.46766 1.44896C5.04988 1.44896 3.85722 1.93195 2.88968 2.89792C1.92215 3.8639 1.4379 5.07137 1.43694 6.52033C1.43694 7.3472 1.60458 8.1847 1.93987 9.03283C2.27515 9.88096 2.87388 10.8542 3.73604 11.9525C4.5982 13.0508 5.7717 14.3428 7.25654 15.8285C8.74137 17.3141 10.6333 19.1137 12.9324 21.2273Z" fill="white"/>
</svg>
