<svg width="25" height="25" viewBox="0 0 25 25" fill="none" xmlns="http://www.w3.org/2000/svg">
<circle cx="12.5" cy="12.5" r="12" fill="white" stroke="white"/>
<g opacity="0.8">
<rect width="16.6667" height="16.6667" transform="translate(4.1665 5)" fill="white"/>
<path d="M12.4999 19.5833L11.4929 18.6806C10.3239 17.6273 9.3575 16.7187 8.59361 15.9549C7.82973 15.191 7.22209 14.5081 6.7707 13.9062C6.31931 13.2928 6.00102 12.7315 5.81584 12.2222C5.64223 11.713 5.55542 11.1921 5.55542 10.6597C5.55542 9.57175 5.92 8.66319 6.64917 7.93402C7.37834 7.20485 8.2869 6.84027 9.37487 6.84027C9.97672 6.84027 10.5496 6.96759 11.0936 7.22222C11.6376 7.47685 12.1063 7.83564 12.4999 8.2986C12.8934 7.83564 13.3621 7.47685 13.9061 7.22222C14.4501 6.96759 15.023 6.84027 15.6249 6.84027C16.7128 6.84027 17.6214 7.20485 18.3506 7.93402C19.0797 8.66319 19.4443 9.57175 19.4443 10.6597C19.4443 11.1921 19.3517 11.713 19.1665 12.2222C18.9929 12.7315 18.6804 13.2928 18.229 13.9062C17.7776 14.5081 17.17 15.191 16.4061 15.9549C15.6422 16.7187 14.6758 17.6273 13.5068 18.6806L12.4999 19.5833ZM12.4999 17.7083C13.611 16.713 14.5253 15.8623 15.2429 15.1562C15.9605 14.4387 16.5276 13.8194 16.9443 13.2986C17.361 12.7662 17.6503 12.2974 17.8124 11.8924C17.9744 11.4757 18.0554 11.0648 18.0554 10.6597C18.0554 9.96527 17.8239 9.38657 17.361 8.92361C16.898 8.46064 16.3193 8.22916 15.6249 8.22916C15.0809 8.22916 14.5774 8.38541 14.1144 8.69791C13.6515 8.99884 12.6736 10.3589 12.5 10.8334C12.3264 10.3589 11.3482 8.99884 10.8853 8.69791C10.4223 8.38541 9.91885 8.22916 9.37487 8.22916C8.68042 8.22916 8.10172 8.46064 7.63875 8.92361C7.17579 9.38657 6.94431 9.96527 6.94431 10.6597C6.94431 11.0648 7.02533 11.4757 7.18736 11.8924C7.3494 12.2974 7.63875 12.7662 8.05542 13.2986C8.47209 13.8194 9.03922 14.4387 9.75681 15.1562C10.4744 15.8623 11.3888 16.713 12.4999 17.7083Z" fill="black"/>
</g>
</svg>
