<svg width="27" height="27" viewBox="0 0 27 27" fill="none" xmlns="http://www.w3.org/2000/svg">
<path d="M25.5003 25.5003L19.5287 19.5287M19.5287 19.5287C20.5501 18.5072 21.3604 17.2945 21.9132 15.9599C22.466 14.6253 22.7506 13.1949 22.7506 11.7503C22.7506 10.3057 22.466 8.87527 21.9132 7.54066C21.3604 6.20604 20.5501 4.99338 19.5287 3.97191C18.5072 2.95044 17.2945 2.14016 15.9599 1.58735C14.6253 1.03453 13.1949 0.75 11.7503 0.75C10.3057 0.75 8.87527 1.03453 7.54066 1.58735C6.20604 2.14016 4.99338 2.95044 3.97191 3.97191C1.90895 6.03486 0.75 8.83283 0.75 11.7503C0.75 14.6677 1.90895 17.4657 3.97191 19.5287C6.03486 21.5916 8.83283 22.7506 11.7503 22.7506C14.6677 22.7506 17.4657 21.5916 19.5287 19.5287Z" stroke="white" stroke-width="1.5" stroke-linecap="round" stroke-linejoin="round"/>
</svg>
