<svg width="130" height="130" viewBox="0 0 130 130" fill="none" xmlns="http://www.w3.org/2000/svg">
<circle cx="65" cy="65" r="65" fill="#9CFFCA" fill-opacity="0.25"/>
<path fill-rule="evenodd" clip-rule="evenodd" d="M70.4169 25.3355L76.5292 30.5335C77.8613 31.6661 79.5156 32.3514 81.2584 32.4925L89.2558 33.1388C93.33 33.4681 96.5644 36.7025 96.8937 40.7767L97.5402 48.7742C97.6812 50.5169 98.3665 52.1712 99.499 53.5033L104.697 59.6154C107.345 62.729 107.345 67.3033 104.697 70.4169L99.499 76.5292C98.3664 77.8613 97.6811 79.5156 97.54 81.2584L96.8935 89.2558C96.5644 93.33 93.3298 96.5644 89.2558 96.8937L81.2584 97.5402C79.5156 97.6812 77.8613 98.3665 76.5292 99.499L70.4169 104.697C67.3033 107.345 62.729 107.345 59.6154 104.697L53.5033 99.499C52.1712 98.3664 50.5169 97.6811 48.7742 97.54L40.7767 96.8935C36.7025 96.5644 33.4681 93.3298 33.1388 89.2558L32.4923 81.2584C32.3512 79.5156 31.6659 77.8613 30.5333 76.5292L25.3355 70.4169C22.6876 67.3033 22.6876 62.729 25.3355 59.6154L30.5335 53.5033C31.6661 52.1712 32.3514 50.5169 32.4925 48.7742L33.1388 40.7767C33.4681 36.7025 36.7025 33.4681 40.7767 33.1388L48.7742 32.4923C50.5169 32.3512 52.1712 31.6659 53.5033 30.5333L59.6154 25.3355C62.729 22.6876 67.3033 22.6876 70.4169 25.3355ZM80.6904 50.1134L60.8334 70.0785L51.2794 60.5246L45.3874 66.4164L60.8334 81.8624L86.5826 56.0054L80.6904 50.1134Z" fill="#14AE5C"/>
</svg>
